<svg width="154" height="50" viewBox="0 0 154 50" fill="none" xmlns="http://www.w3.org/2000/svg">
<path d="M3.51562 35L0.336914 9.2041H5.24414L7.13379 26.7529L8.81836 9.2041H13.7256L10.5469 35H3.51562ZM15.9 35V9.21875H20.8805V35H15.9ZM26.2043 35L23.0256 9.2041H27.9328L29.8225 26.7529L31.507 9.2041H36.4143L33.2355 35H26.2043ZM38.823 35V9.21875H49.1355V14.1992H44.0672V19.2236H48.9305V24.0723H44.0672V29.9756H49.4725V35H38.823ZM52.0863 35V9.21875H57.184V19.5459L59.5863 9.21875H64.7719L61.8861 21.0254L65.3725 35H60.0258L57.2133 22.5195V35H52.0863Z" fill="#F94D1F"/>
<path d="M75.0664 34H74.5664V34.5H75.0664V34ZM75.0664 9.9375V9.4375H74.5664V9.9375H75.0664ZM79.8242 9.9375H80.3242V9.4375H79.8242V9.9375ZM79.8242 19.5762H79.3242L80.3112 19.6895L79.8242 19.5762ZM82.0664 9.9375V9.4375H81.6694L81.5794 9.82421L82.0664 9.9375ZM86.9062 9.9375L87.392 10.0562L87.5432 9.4375H86.9062V9.9375ZM84.2129 20.957L83.7272 20.8383L83.6979 20.9583L83.7278 21.0781L84.2129 20.957ZM87.4668 34V34.5H88.1069L87.9519 33.879L87.4668 34ZM82.4766 34L81.9888 34.1099L82.0767 34.5H82.4766V34ZM79.8516 22.3516L80.3393 22.2416L79.3516 22.3516H79.8516ZM79.8516 34V34.5H80.3516V34H79.8516ZM75.5664 34V9.9375H74.5664V34H75.5664ZM75.0664 10.4375H79.8242V9.4375H75.0664V10.4375ZM79.3242 9.9375V19.5762H80.3242V9.9375H79.3242ZM80.3112 19.6895L82.5534 10.0508L81.5794 9.82421L79.3372 19.4629L80.3112 19.6895ZM82.0664 10.4375H86.9062V9.4375H82.0664V10.4375ZM86.4205 9.81879L83.7272 20.8383L84.6986 21.0757L87.392 10.0562L86.4205 9.81879ZM83.7278 21.0781L86.9817 34.121L87.9519 33.879L84.698 20.836L83.7278 21.0781ZM87.4668 33.5H82.4766V34.5H87.4668V33.5ZM82.9643 33.8901L80.3393 22.2416L79.3638 22.4615L81.9888 34.1099L82.9643 33.8901ZM79.3516 22.3516V34H80.3516V22.3516H79.3516ZM79.8516 33.5H75.0664V34.5H79.8516V33.5ZM90.5555 32.5371L90.1724 32.8584L90.1737 32.8599L90.5555 32.5371ZM89.1337 9.9375V9.4375H88.6337V9.9375H89.1337ZM93.8095 9.9375H94.3095V9.4375H93.8095V9.9375ZM93.8778 28.5312L93.3815 28.5918L93.3817 28.5933L93.8778 28.5312ZM95.7919 29.4473L96.1977 29.7395L96.203 29.7319L95.7919 29.4473ZM96.0927 28.5312L95.5962 28.4707L95.595 28.4827L96.0927 28.5312ZM96.161 9.9375V9.4375H95.661V9.9375H96.161ZM100.837 9.9375H101.337V9.4375H100.837V9.9375ZM99.4149 32.5371L99.7967 32.8599L99.798 32.8584L99.4149 32.5371ZM94.9852 33.7188C93.0705 33.7188 91.7589 33.1859 90.9374 32.2143L90.1737 32.8599C91.248 34.1305 92.8895 34.7188 94.9852 34.7188V33.7188ZM90.9386 32.2158C90.0953 31.2103 89.6337 29.6855 89.6337 27.5605H88.6337C88.6337 29.8106 89.12 31.6035 90.1725 32.8584L90.9386 32.2158ZM89.6337 27.5605V9.9375H88.6337V27.5605H89.6337ZM89.1337 10.4375H93.8095V9.4375H89.1337V10.4375ZM93.3095 9.9375V27.3691H94.3095V9.9375H93.3095ZM93.3095 27.3691C93.3095 27.7891 93.3333 28.1967 93.3815 28.5918L94.3741 28.4707C94.3312 28.1184 94.3095 27.7513 94.3095 27.3691H93.3095ZM93.3817 28.5933C93.4346 29.0164 93.5604 29.3993 93.7812 29.7182L94.6034 29.149C94.496 28.994 94.4122 28.7752 94.374 28.4692L93.3817 28.5933ZM93.7812 29.7182C94.0633 30.1257 94.5053 30.2891 94.9852 30.2891V29.2891C94.736 29.2891 94.6494 29.2154 94.6034 29.149L93.7812 29.7182ZM94.9852 30.2891C95.4616 30.2891 95.9101 30.1387 96.1976 29.7394L95.3861 29.1551C95.3455 29.2115 95.2563 29.2891 94.9852 29.2891V30.2891ZM96.203 29.7319C96.428 29.4068 96.548 29.0133 96.5903 28.5798L95.595 28.4827C95.5644 28.7966 95.4839 29.0138 95.3808 29.1627L96.203 29.7319ZM96.589 28.5918C96.6372 28.1967 96.661 27.7891 96.661 27.3691H95.661C95.661 27.7513 95.6393 28.1184 95.5963 28.4707L96.589 28.5918ZM96.661 27.3691V9.9375H95.661V27.3691H96.661ZM96.161 10.4375H100.837V9.4375H96.161V10.4375ZM100.337 9.9375V27.5605H101.337V9.9375H100.337ZM100.337 27.5605C100.337 29.6855 99.8752 31.2103 99.0318 32.2158L99.798 32.8584C100.851 31.6035 101.337 29.8106 101.337 27.5605H100.337ZM99.0331 32.2143C98.2115 33.1859 96.9 33.7188 94.9852 33.7188V34.7188C97.0809 34.7188 98.7225 34.1305 99.7967 32.8599L99.0331 32.2143ZM104.083 34H103.583V34.5H104.083V34ZM104.083 9.9375V9.4375H103.583V9.9375H104.083ZM111.411 9.9375L111.906 9.86918L111.846 9.4375H111.411V9.9375ZM113.434 24.6074L112.939 24.6757L113.929 24.6753L113.434 24.6074ZM115.444 9.9375V9.4375H115.008L114.948 9.86963L115.444 9.9375ZM122.84 9.9375H123.34V9.4375H122.84V9.9375ZM122.84 34V34.5H123.34V34H122.84ZM118.438 34H117.938V34.5H118.438V34ZM118.438 16.6641H118.938L117.944 16.5854L118.438 16.6641ZM115.676 34V34.5H116.103L116.17 34.0787L115.676 34ZM111.356 34L110.863 34.0832L110.933 34.5H111.356V34ZM108.43 16.6641L108.923 16.5809L107.93 16.6641H108.43ZM108.43 34V34.5H108.93V34H108.43ZM104.583 34V9.9375H103.583V34H104.583ZM104.083 10.4375H111.411V9.4375H104.083V10.4375ZM110.915 10.0058L112.939 24.6757L113.929 24.5391L111.906 9.86918L110.915 10.0058ZM113.929 24.6753L115.939 10.0054L114.948 9.86963L112.939 24.5396L113.929 24.6753ZM115.444 10.4375H122.84V9.4375H115.444V10.4375ZM122.34 9.9375V34H123.34V9.9375H122.34ZM122.84 33.5H118.438V34.5H122.84V33.5ZM118.938 34V16.6641H117.938V34H118.938ZM117.944 16.5854L115.182 33.9213L116.17 34.0787L118.932 16.7427L117.944 16.5854ZM115.676 33.5H111.356V34.5H115.676V33.5ZM111.849 33.9168L108.923 16.5809L107.937 16.7473L110.863 34.0832L111.849 33.9168ZM107.93 16.6641V34H108.93V16.6641H107.93ZM108.43 33.5H104.083V34.5H108.43V33.5ZM125.437 34L124.939 33.9519L124.886 34.5H125.437V34ZM127.761 9.9375V9.4375H127.307L127.263 9.88943L127.761 9.9375ZM135.923 9.9375L136.421 9.89027L136.378 9.4375H135.923V9.9375ZM138.206 34V34.5H138.756L138.704 33.9528L138.206 34ZM133.654 34L133.156 34.0438L133.196 34.5H133.654V34ZM133.312 30.1172L133.81 30.0733L133.77 29.6172H133.312V30.1172ZM130.413 30.1172V29.6172H129.951L129.915 30.0786L130.413 30.1172ZM130.113 34V34.5H130.575L130.611 34.0386L130.113 34ZM130.755 26.2754L130.257 26.2381L130.216 26.7754H130.755V26.2754ZM132.943 26.2754V26.7754H133.488L133.441 26.2325L132.943 26.2754ZM131.89 14.0391L132.388 13.9962L132.349 13.5391H131.89V14.0391ZM131.671 14.0391V13.5391H131.207L131.173 14.0017L131.671 14.0391ZM125.935 34.0481L128.259 9.98557L127.263 9.88943L124.939 33.9519L125.935 34.0481ZM127.761 10.4375H135.923V9.4375H127.761V10.4375ZM135.425 9.98473L137.709 34.0472L138.704 33.9528L136.421 9.89027L135.425 9.98473ZM138.206 33.5H133.654V34.5H138.206V33.5ZM134.152 33.9562L133.81 30.0733L132.814 30.161L133.156 34.0438L134.152 33.9562ZM133.312 29.6172H130.413V30.6172H133.312V29.6172ZM129.915 30.0786L129.614 33.9614L130.611 34.0386L130.912 30.1558L129.915 30.0786ZM130.113 33.5H125.437V34.5H130.113V33.5ZM130.755 26.7754H132.943V25.7754H130.755V26.7754ZM133.441 26.2325L132.388 13.9962L131.392 14.0819L132.445 26.3182L133.441 26.2325ZM131.89 13.5391H131.671V14.5391H131.89V13.5391ZM131.173 14.0017L130.257 26.2381L131.254 26.3127L132.17 14.0764L131.173 14.0017ZM140.803 34H140.303V34.5H140.803V34ZM140.803 9.9375V9.4375H140.303V9.9375H140.803ZM150.975 10.7852L150.641 11.1571L150.644 11.1598L150.975 10.7852ZM152.233 13.1367L151.743 13.2382L151.744 13.2433L152.233 13.1367ZM152.055 19.8223L151.596 19.6247L151.594 19.6292L152.055 19.8223ZM150.182 21.4492L150.027 20.9739L148.232 21.5603L150.082 21.939L150.182 21.4492ZM151.768 22.584L151.321 22.8076L151.325 22.8157L151.768 22.584ZM152.233 34V34.5H152.733V34H152.233ZM147.489 34H146.989V34.5H147.489V34ZM147.051 23.2812L146.79 23.7076L146.798 23.7124L146.806 23.717L147.051 23.2812ZM145.67 23.0215V22.5215H145.17V23.0215H145.67ZM145.67 34V34.5H146.17V34H145.67ZM145.698 18.8516H145.198V19.3516H145.698V18.8516ZM147.639 14.832L148.086 14.6084L147.639 14.832ZM145.698 14.3945V13.8945H145.198V14.3945H145.698ZM141.303 34V9.9375H140.303V34H141.303ZM140.803 10.4375H148.186V9.4375H140.803V10.4375ZM148.186 10.4375C149.348 10.4375 150.138 10.7051 150.641 11.1571L151.309 10.4132C150.554 9.73497 149.484 9.4375 148.186 9.4375V10.4375ZM150.644 11.1598C151.174 11.629 151.55 12.3073 151.743 13.2382L152.722 13.0353C152.496 11.9427 152.033 11.0533 151.306 10.4106L150.644 11.1598ZM151.744 13.2433C151.953 14.2017 152.061 15.3447 152.061 16.6777H153.061C153.061 15.2946 152.95 14.0769 152.721 13.0301L151.744 13.2433ZM152.061 16.6777C152.061 17.9551 151.896 18.9276 151.596 19.6247L152.514 20.0199C152.889 19.1492 153.061 18.0253 153.061 16.6777H152.061ZM151.594 19.6292C151.33 20.2594 150.831 20.7113 150.027 20.9739L150.337 21.9245C151.374 21.5856 152.124 20.9528 152.516 20.0153L151.594 19.6292ZM150.082 21.939C150.713 22.0684 151.099 22.3648 151.321 22.8076L152.215 22.3604C151.835 21.6001 151.164 21.14 150.282 20.9594L150.082 21.939ZM151.325 22.8157C151.585 23.3131 151.733 23.9957 151.733 24.8945H152.733C152.733 23.8975 152.571 23.0398 152.211 22.3522L151.325 22.8157ZM151.733 24.8945V34H152.733V24.8945H151.733ZM152.233 33.5H147.489V34.5H152.233V33.5ZM147.989 34V24.5801H146.989V34H147.989ZM147.989 24.5801C147.989 24.2008 147.95 23.8571 147.853 23.5694C147.755 23.2789 147.584 23.0072 147.296 22.8455L146.806 23.717C146.81 23.7193 146.857 23.7462 146.905 23.8886C146.954 24.0338 146.989 24.2576 146.989 24.5801H147.989ZM147.312 22.8549C146.907 22.6065 146.329 22.5215 145.67 22.5215V23.5215C146.287 23.5215 146.63 23.6097 146.79 23.7076L147.312 22.8549ZM145.17 23.0215V34H146.17V23.0215H145.17ZM145.67 33.5H140.803V34.5H145.67V33.5ZM145.698 19.3516H146.86V18.3516H145.698V19.3516ZM146.86 19.3516C147.123 19.3516 147.373 19.2779 147.59 19.1203C147.802 18.9666 147.954 18.7536 148.063 18.5167C148.274 18.0554 148.358 17.4249 148.358 16.6777H147.358C147.358 17.3798 147.275 17.8362 147.154 18.0995C147.096 18.2249 147.04 18.2836 147.003 18.3111C146.97 18.3347 146.929 18.3516 146.86 18.3516V19.3516ZM148.358 16.6777C148.358 16.1976 148.339 15.7877 148.299 15.4534C148.261 15.1304 148.199 14.8336 148.086 14.6084L147.192 15.0556C147.225 15.1221 147.272 15.2788 147.306 15.5711C147.34 15.8519 147.358 16.2191 147.358 16.6777H148.358ZM148.086 14.6084C147.834 14.1051 147.357 13.8945 146.819 13.8945V14.8945C147.083 14.8945 147.152 14.9756 147.192 15.0556L148.086 14.6084ZM146.819 13.8945H145.698V14.8945H146.819V13.8945ZM145.198 14.3945V18.8516H146.198V14.3945H145.198Z" fill="#F94D1F" fill-opacity="0.8"/>
</svg>
